<svg xmlns="http://www.w3.org/2000/svg" version="1.1" xmlns:xlink="http://www.w3.org/1999/xlink" xmlns:svgjs="http://svgjs.dev/svgjs" viewBox="0 0 6.029414633922424 4.698558710877215"><g transform="matrix(0.840145060600798,0,0,0.840145060600798,3.021693118221285,4.104998091748994)"><g transform="matrix(1,0,0,1,0,0)"><path d=" M -2.368596395462075 -1.1397045342339756 Q -2.3943890559550276 -1.1059519244875384 -2.437241267279861 -1.1023899047554495 Q -2.481090041658761 -1.0987450473551725 -2.5125997567745975 -1.1277344911807932 Q -2.5441094718904345 -1.1567239350064136 -2.5484170306362164 -1.2085452138178405 Q -2.5526417517138102 -1.2593699295752014 -2.5263508096938248 -1.2931639581557326 Q -2.5000598676738393 -1.326957986736264 -2.4562110932949395 -1.330602844136541 Q -2.4133588819701055 -1.3341648638686299 -2.382347448381302 -1.3051340012089152 Q -2.351336014792498 -1.2761031385492005 -2.3471112937149043 -1.2252784227918396 Q -2.3428037349691224 -1.1734571439804127 -2.368596395462075 -1.1397045342339756 M -2.3033252687177246 -1.326252597782014 L -1.744253395386754 -1.3727245296355464 L -1.7280172124218836 -1.1773981710386296 L -2.287089085752854 -1.1309262391850974 L -2.3033252687177246 -1.326252597782014 M -1.6793781375461936 -1.8955778915674355 L -2.028151635519291 -1.7449822504897141 L -1.726151468576442 -1.6795842446600906 L -1.7676336988114136 -1.4880242682173774 L -2.4566632059140296 -1.6372333106441885 L -2.415180975679058 -1.8287932870869017 L -2.118067542829136 -1.7644535014163334 L -2.3688309327124317 -2.0428322403570762 L -2.320999381523128 -2.2637126213573473 L -2.0415625738060346 -1.9381975364643729 L -1.6292185020069678 -2.1272090875721448 L -1.6793781375461936 -1.8955778915674355 M -1.5433393571773308 -2.2993586891667035 Q -1.60990032097039 -2.264474765950714 -1.6849839259742625 -2.2700829973673406 Q -1.760067530978135 -2.2756912287839675 -1.8325184561439405 -2.325639836798795 Q -1.9041460753419526 -2.375020846995272 -1.9358084472420265 -2.443611984948082 Q -1.9674708191421004 -2.5122031229008916 -1.9585412730945684 -2.586818893401403 Q -1.9496117270470361 -2.6614346639019146 -1.90193351030561 -2.7305923651965474 Q -1.854255293564184 -2.7997500664911796 -1.7876943297711252 -2.8346339897071697 Q -1.7211333659780659 -2.8695179129231594 -1.6457659620650182 -2.864321334490429 Q -1.5703985581519704 -2.8591247560576987 -1.4987709389539583 -2.8097437458612218 Q -1.4271433197559462 -2.760362735664745 -1.3950692948719756 -2.6914877988027595 Q -1.362995269988005 -2.6226128619407745 -1.3722086149447124 -2.5475854384563665 Q -1.3814219599014197 -2.472558014971958 -1.4291001766428457 -2.403400313677326 Q -1.4767783933842717 -2.3342426123826936 -1.5433393571773308 -2.2993586891667035 M -1.5552925726283946 -2.5736001350504 Q -1.564794464641455 -2.6135527826243985 -1.6117229048056698 -2.6459058582703663 Q -1.6586513449698848 -2.678258933916334 -1.6989594640083157 -2.672645954352529 Q -1.7392675830467463 -2.6670329747887243 -1.7619714957807588 -2.6341007360769946 Q -1.7846754085147714 -2.601168497365265 -1.7753013705764322 -2.561911301684338 Q -1.7659273326380933 -2.522654106003411 -1.7189988924738784 -2.4903010303574433 Q -1.6712471463418703 -2.4573803568931254 -1.631790424030965 -2.4617583775052405 Q -1.5923337017200596 -2.4661363981173556 -1.569062191167697 -2.4998919427968787 Q -1.5457906806153343 -2.5336474874764017 -1.5552925726283946 -2.5736001350504 M -0.8516032700977365 -3.7501414328694658 L -0.5031992799542071 -3.1372469397859764 L -0.6735926425703261 -3.0403856886255056 L -0.8658325747204438 -3.378564352185048 L -0.7892167100598355 -2.9746584110523293 L -0.9317907481672003 -2.8936112417139763 L -1.2420066718685494 -3.168176499316097 L -1.0482841695476082 -2.8273897740838585 L -1.2186775321637273 -2.730528522923388 L -1.5670815223072567 -3.3434230160068776 L -1.3610446501642965 -3.460546059501936 L -0.9808299653961914 -3.149853617548981 L -1.0567707883497983 -3.633512579431348 L -0.8516032700977365 -3.7501414328694658 M 0.13695135676226244 -3.417608433349903 L -0.2330787889540248 -3.3908000156199574 Q -0.22676267668252514 -3.345137046752681 -0.20269564790209318 -3.324321712845154 Q -0.17862861912166128 -3.303506378937626 -0.14372011480880398 -3.3060354749498853 Q -0.0948482087708038 -3.309576209367048 -0.07708254116992941 -3.3549786438248526 L 0.1313710988697041 -3.3700809600123423 Q 0.12259615637381494 -3.3112932029179114 0.08848201228311892 -3.2632024015837766 Q 0.0543678681924229 -3.2151116002496414 -0.0006043675079808186 -3.1850607549686973 Q -0.05557660320838448 -3.155009909687753 -0.12439622599658884 -3.1500239775492993 Q -0.2071792505099361 -3.144026407005942 -0.27403973304160356 -3.174274148667636 Q -0.34090021557327105 -3.2045218903293304 -0.38200169123658906 -3.2667144839261377 Q -0.423103166899907 -3.3289070775229455 -0.42946203687358697 -3.416677031223844 Q -0.4358209068472669 -3.5044469849247424 -0.4045757793480625 -3.571379727342474 Q -0.3733306518488581 -3.6383124697602063 -0.31152836134170875 -3.6778817367242267 Q -0.24972607083455942 -3.717451003688247 -0.1659456604837019 -3.723520834117669 Q -0.08316263597035467 -3.729518404661026 -0.016873106243506852 -3.7002319188938095 Q 0.049416423483340965 -3.6709454331265934 0.08991081639880705 -3.610212788343019 Q 0.13040520931427313 -3.5494801435594443 0.13661955951582394 -3.4637049615335664 Q 0.13828153689530842 -3.4407650872708317 0.13695135676226244 -3.417608433349903 M -0.06639834240338033 -3.4981248903586577 Q -0.06899969830170394 -3.534030780509025 -0.09441828606627212 -3.5527429529124355 Q -0.11983687383084024 -3.5714551253158455 -0.15574276398120773 -3.568853769417522 Q -0.19164865413157525 -3.5662524135191984 -0.2131794606160514 -3.545141412308265 Q -0.23471026710052756 -3.524030411097331 -0.23894609229264635 -3.4856239300694916 L -0.06639834240338033 -3.4981248903586577 M 0.9564750940156864 -3.5340540247613266 L 0.7902671656805862 -2.9982406948053106 L 0.6021116826122527 -3.0566060457536435 L 0.6258133479719817 -3.1330143637509362 Q 0.5906774575519564 -3.1041271831271375 0.541690518454025 -3.094718155663284 Q 0.49270357935609355 -3.0853091281994303 0.4382626527830224 -3.1021965647682372 Q 0.34466246323633876 -3.131231104833905 0.30980855634703225 -3.209574612379531 Q 0.2749546494577258 -3.2879181199251573 0.3078407101443499 -3.393934661146401 L 0.404424996485246 -3.705298556985369 L 0.5906702716036472 -3.6475257476710294 L 0.5014927556876665 -3.360039451206215 Q 0.48727175647182897 -3.3141944604078395 0.5034794603660593 -3.2803741952628567 Q 0.5196871642602894 -3.2465539301178734 0.5598015312088682 -3.2341105558040155 Q 0.6008710021324131 -3.221370910673161 0.6328960489739739 -3.2402294995598155 Q 0.6649210958155347 -3.2590880884464695 0.6791420950313722 -3.304933079244845 L 0.7683196109473529 -3.5924193757096594 L 0.9564750940156864 -3.5340540247613266 M 1.4424247811512065 -3.1950789217863527 Q 1.4891179469084506 -3.1855921799027267 1.5329971198440706 -3.1492106161308664 Q 1.5845743932947118 -3.106446321872715 1.6041894843995574 -3.0447170889198536 Q 1.623804575504403 -2.9829878559669925 1.6065658439658261 -2.9128446015875378 Q 1.5893271124272492 -2.842701347208083 1.5337973571965153 -2.7757278727274 Q 1.4782676019657812 -2.7087543982467164 1.4122117006582569 -2.678437440905146 Q 1.3461557993507327 -2.648120483563575 1.2818615948418484 -2.655963012911289 Q 1.217567390332964 -2.663805542259002 1.1659901168823226 -2.7065698365171538 Q 1.1221109439467023 -2.742951400289014 1.104140065377769 -2.7870795944902347 Q 1.086169186808836 -2.8312077886914557 1.0939944775694523 -2.87668047087001 L 1.0442091797763806 -2.8166352868528453 L 0.8933264096819672 -2.9417368043841545 L 1.3656484656675212 -3.511396242495715 L 1.5165312357619345 -3.386294724964406 L 1.352495062264249 -3.188453541728364 Q 1.3957316153939625 -3.2045656636699786 1.4424247811512065 -3.1950789217863527 M 1.4124681060860738 -2.9873920237425855 Q 1.4092260375499497 -3.029700285247959 1.3761242053353593 -3.057146026339012 Q 1.3430223731207684 -3.084591767430064 1.3005265120939533 -3.079556710768058 Q 1.2580306510671382 -3.074521654106052 1.2235639064411652 -3.032951911324938 Q 1.1884588887665632 -2.990612358492322 1.1913818207783726 -2.9479191919611973 Q 1.1943047527901818 -2.9052260254300726 1.2274065850047724 -2.8777802843390203 Q 1.2605084172193632 -2.8503345432479676 1.3033234147704928 -2.855754504935725 Q 1.3461384123216227 -2.861174466623482 1.3806051569475954 -2.902744209404596 Q 1.4157101746221974 -2.9450837622372124 1.4124681060860738 -2.9873920237425855 M 2.1097634416702205 -2.7306384892519904 L 1.4971668290492206 -2.3155175548180873 L 1.3872158788478084 -2.4777728738366225 L 1.9998124914688082 -2.8928938082705256 L 2.1097634416702205 -2.7306384892519904 M 1.966814410569397 -1.7980059547111358 L 1.846264867238716 -2.148874601932235 Q 1.8037357320845961 -2.1310905455040015 1.7897675923607836 -2.10250049351636 Q 1.7757994526369711 -2.073910441528718 1.787172051064394 -2.040809625753143 Q 1.8030936888627858 -1.9944684836673372 1.8515297020371055 -1.9889049750821806 L 1.9194403612180013 -1.791245818022316 Q 1.8603634728025766 -1.7846943864878007 1.8051474854078042 -1.8053751682916963 Q 1.7499314980130318 -1.8260559500955917 1.7068212317122302 -1.8715147769554434 Q 1.6637109654114286 -1.9169736038152951 1.6412906999402237 -1.982229497772858 Q 1.61432139509805 -2.060725718040651 1.6264641366288033 -2.1330983912544914 Q 1.6386068781595569 -2.2054710644683317 1.6882198262398846 -2.261111026570931 Q 1.7378327743202124 -2.3167509886735305 1.821057682555945 -2.3453449504339074 Q 1.9042825907916774 -2.373938912194285 1.9769801953891584 -2.3608504330699436 Q 2.0496777999866396 -2.347761953945602 2.103736690007037 -2.2981344775866073 Q 2.1577955800274338 -2.2485070012276123 2.1850898162532486 -2.1690650433662313 Q 2.212059121095422 -2.090568823098438 2.2006996514664365 -2.0189939500650325 Q 2.1893401818374505 -1.9474190770316269 2.140983374455684 -1.8927393808012822 Q 2.0926265670739177 -1.8380596845709378 2.011293134025361 -1.810115585577842 Q 1.98954116937284 -1.802642163754107 1.966814410569397 -1.7980059547111358 M 1.9926479993830366 -2.0151847420938074 Q 2.0266945527522 -2.026882271904871 2.0382838202133757 -2.056241067515613 Q 2.0498730876745515 -2.0855998631263555 2.038175557863488 -2.1196464164955184 Q 2.026478028052425 -2.153692969864682 2.000562723153726 -2.16910877253621 Q 1.974647418255028 -2.1845245752077385 1.9364348700132044 -2.178797345784509 L 1.9926479993830366 -2.0151847420938074 M 1.7615957699609086 -1.5292311514396149 Q 1.7875892261105097 -1.5885172394991147 1.8323743222007256 -1.6226463351242575 Q 1.8771594182909415 -1.6567754307494 1.9331907182258943 -1.66031003505531 L 1.9316121655178724 -1.470316592612293 Q 1.9045798646926433 -1.4665410513141062 1.8894059107794132 -1.4456663986789322 Q 1.8742319568661832 -1.4247917460437585 1.873974403529611 -1.3937928159609505 Q 1.8737750073980715 -1.3697936442839378 1.8836583478534288 -1.3557110457508723 Q 1.8935416883087859 -1.3416284472178066 1.9095411360934609 -1.341495516463447 Q 1.930540411310847 -1.3413210448483497 1.940731154135661 -1.3642371693173454 Q 1.9509218969604751 -1.3871532937863411 1.9633618159227981 -1.4400517665073076 Q 1.9758598920901536 -1.4999499976340696 1.9911917012741858 -1.539823994513545 Q 2.006523510458218 -1.5796979913930205 2.040767428079003 -1.6089144953930008 Q 2.0750113456997887 -1.6381309993929811 2.133009343919236 -1.637649125408427 Q 2.1830076182463456 -1.637233716801053 2.2232818998033226 -1.6098981676924407 Q 2.2635561813602996 -1.5825626185838282 2.287119173999569 -1.5298650344088234 Q 2.310682166638839 -1.4771674502338186 2.3100673618999252 -1.4031700042296964 Q 2.3091534629637023 -1.2931738007100548 2.254631911845132 -1.2306246163538606 Q 2.200110360726562 -1.1680754319976665 2.112030316189374 -1.158806896281223 L 2.1135008626594787 -1.3358007873991915 Q 2.1405414716568556 -1.3405762941839205 2.1551946723964455 -1.3589551871888126 Q 2.1698478731360358 -1.3773340801937046 2.170105426472608 -1.4083330102765128 Q 2.1703048226041477 -1.4323321819535253 2.1614089853771112 -1.4449065240846302 Q 2.152513148150075 -1.457480866215735 2.1365137003654 -1.4576137969700946 Q 2.1165143906345563 -1.4577799604130444 2.105823665066471 -1.4348679900301224 Q 2.0951329394983857 -1.4119560196472005 2.0837096023669 -1.361049169727171 Q 2.070203252540855 -1.3001592812860143 2.053867323784207 -1.2597936098354152 Q 2.0375313950275586 -1.2194279383848161 2.0017792210048126 -1.1892239311565147 Q 1.9660270469820662 -1.1590199239282135 1.9050291523029923 -1.1595267224292098 Q 1.8560308434624249 -1.1599338228644367 1.8172689723934825 -1.188756857944641 Q 1.7785071013245402 -1.2175798930248454 1.7564440569150837 -1.270265014941629 Q 1.7343810125056272 -1.3229501368584127 1.7349708927280985 -1.3939476864029086 Q 1.7356023138113073 -1.4699450633801152 1.7615957699609086 -1.5292311514396149" fill="#0e0904" fill-rule="nonzero"></path></g><g transform="matrix(1,0,0,1,0,0)"><g transform="matrix(1,0,0,1,0,0)" clip-path="url(#SvgjsClipPath29416)"><g clip-path="url(#SvgjsClipPath29414088753c1-31c2-4717-ab55-7c589c743624)"><path d=" M 0.8420299717067222 -2.261396390214376 L -0.8420299717067219 -2.261396390214376 L -0.8420299717067219 -0.5773364468009319 L 0.8420299717067222 -0.5773364468009319 Z M -0.8710650631909473 -2.2904314816986013 L -0.8710650631909473 -0.5483013553167067 L 0.8710650631909475 -0.5483013553167067 L 0.8710650631909475 -2.2904314816986013 Z" fill="#0e0904" transform="matrix(1,0,0,1,0,0)" fill-rule="evenodd"></path></g><g clip-path="url(#SvgjsClipPath29414088753c1-31c2-4717-ab55-7c589c743624)"><path d=" M 0 -2.610174729286448 L -1.190808310778794 -1.419366418507654 L 0 -0.22855810772885987 L 1.1908083107787943 -1.419366418507654 Z M -1.2318664185076542 -1.419366418507654 L 0 -0.1875 L 1.231866418507654 -1.419366418507654 L 0 -2.6512328370153084 Z" fill="#0e0904" transform="matrix(1,0,0,1,0,0)" fill-rule="evenodd"></path></g><g clip-path="url(#SvgjsClipPath29414088753c1-31c2-4717-ab55-7c589c743624)"><path d=" M 0.30820065924643003 -2.569597049460806 L -1.150230630953152 -1.7275670777540841 L -0.30820065924643003 -0.2691357875545024 L 1.1502306309531516 -1.1111657592612243 Z M -1.1898967296290985 -1.7381980849458052 L -0.31883166643815114 -0.22946968887855546 L 1.1898967296290985 -1.100534752069503 L 0.3188316664381511 -2.6092631481367525 Z" fill="#0e0904" transform="matrix(1,0,0,1,0,0)" fill-rule="evenodd"></path></g><g clip-path="url(#SvgjsClipPath29414088753c1-31c2-4717-ab55-7c589c743624)"><path d=" M 1.1502306309531516 -1.7275670777540841 L -0.30820065924643003 -2.569597049460806 L -1.150230630953152 -1.111165759261224 L 0.3082006592464298 -0.2691357875545024 Z M -0.31883166643815114 -2.6092631481367525 L -1.1898967296290985 -1.100534752069503 L 0.3188316664381511 -0.22946968887855546 L 1.1898967296290985 -1.7381980849458052 Z" fill="#0e0904" transform="matrix(1,0,0,1,0,0)" fill-rule="evenodd"></path></g><g clip-path="url(#SvgjsClipPath29414088753c1-31c2-4717-ab55-7c589c743624)"><path d=" M 0.5953979960573047 -2.450635709425522 L -1.0312692909178678 -2.0147644145649584 L -0.5953979960573045 -0.3880971275897862 L 1.031269290917868 -0.8239684224503494 Z M -1.0667963184276286 -2.035299627761481 L -0.6159332092538271 -0.35257010008002565 L 1.0667963184276283 -0.803433209253827 L 0.6159332092538271 -2.486162736935283 Z" fill="#0e0904" transform="matrix(1,0,0,1,0,0)" fill-rule="evenodd"></path></g><g clip-path="url(#SvgjsClipPath29414088753c1-31c2-4717-ab55-7c589c743624)"><path d=" M 1.031269290917868 -2.0147644145649584 L -0.5953979960573045 -2.450635709425522 L -1.0312692909178678 -0.8239684224503494 L 0.5953979960573047 -0.3880971275897862 Z M -0.6159332092538271 -2.486162736935283 L -1.0667963184276286 -0.803433209253827 L 0.6159332092538271 -0.35257010008002565 L 1.0667963184276283 -2.035299627761481 Z" fill="#0e0904" transform="matrix(1,0,0,1,0,0)" fill-rule="evenodd"></path></g><path d=" M 0.10930998022154459 -1.8705069015770135 C 0.10930998022154459 -1.935771347590664 0.17946925968621885 -1.973298404048513 0.17946925968621885 -2.0075622382056797 C 0.17946925968621885 -2.022246738558751 0.16641637048348878 -2.035299627761481 0.14357381437871108 -2.035299627761481 L -0.14358974808135128 -2.035299627761481 C -0.16643230418612898 -2.035299627761481 -0.1794851933888591 -2.022246738558751 -0.1794851933888591 -2.0075622382056797 C -0.1794851933888591 -1.973298404048513 -0.10932591392418467 -1.935771347590664 -0.10932591392418467 -1.8705069015770135 L -0.10932591392418467 -0.9682259354382947 C -0.10932591392418467 -0.902961489424644 -0.1794851933888591 -0.8654344329667951 -0.1794851933888591 -0.8311705988096285 C -0.1794851933888591 -0.8164860984565572 -0.16643230418612898 -0.803433209253827 -0.14358974808135128 -0.803433209253827 L 0.14357381437871108 -0.803433209253827 C 0.16641637048348878 -0.803433209253827 0.17946925968621885 -0.8164860984565572 0.17946925968621885 -0.8311705988096285 C 0.17946925968621885 -0.8654344329667951 0.10930998022154459 -0.902961489424644 0.10930998022154459 -0.9682259354382947" fill="#0e0904" transform="matrix(1,0,0,1,0,0)" fill-rule="nonzero"></path></g></g></g><defs><clipPath id="SvgjsClipPath29416"><path d=" M -1.2318664185076542 -2.6512328370153084 h 2.4637328370153084 v 2.4637328370153084 h -2.4637328370153084 Z"></path></clipPath><clipPath id="SvgjsClipPath29414088753c1-31c2-4717-ab55-7c589c743624"><path d=" M -1.2318664185076542 -2.6512328370153084 L 1.231866418507654 -2.6512328370153084 L 1.231866418507654 -0.1875 L -1.2318664185076542 -0.1875 Z"></path></clipPath></defs></svg>